<mxfile host="app.diagrams.net" agent="Mozilla/5.0 (Windows NT 10.0; Win64; x64) AppleWebKit/537.36 (KHTML, like Gecko) Chrome/136.0.0.0 Safari/537.36" version="27.0.6">
  <diagram name="Page-1" id="58cdce13-f638-feb5-8d6f-7d28b1aa9fa0">
    <mxGraphModel dx="1907" dy="273" grid="1" gridSize="10" guides="1" tooltips="1" connect="1" arrows="1" fold="1" page="1" pageScale="1" pageWidth="1100" pageHeight="850" background="none" math="0" shadow="0">
      <root>
        <mxCell id="0" />
        <mxCell id="1" parent="0" />
        <mxCell id="dNWCYUFnRBYijKzVIOxl-1" value="" style="ellipse;fillColor=strokeColor;html=1;fontSize=25;fontFamily=黑体;fontStyle=1" vertex="1" parent="1">
          <mxGeometry x="1640" y="1840" width="80" height="80" as="geometry" />
        </mxCell>
        <mxCell id="dNWCYUFnRBYijKzVIOxl-2" value="待审核" style="rounded=1;whiteSpace=wrap;html=1;fontSize=45;fontFamily=黑体;fontStyle=1;strokeWidth=3;" vertex="1" parent="1">
          <mxGeometry x="1560" y="1990" width="240" height="120" as="geometry" />
        </mxCell>
        <mxCell id="dNWCYUFnRBYijKzVIOxl-3" value="审核通过" style="rounded=1;whiteSpace=wrap;html=1;fontSize=45;fontFamily=黑体;fontStyle=1;strokeWidth=3;" vertex="1" parent="1">
          <mxGeometry x="1280" y="2400" width="240" height="120" as="geometry" />
        </mxCell>
        <mxCell id="dNWCYUFnRBYijKzVIOxl-4" value="审核驳回" style="rounded=1;whiteSpace=wrap;html=1;fontSize=45;fontFamily=黑体;fontStyle=1;strokeWidth=3;" vertex="1" parent="1">
          <mxGeometry x="1810" y="2400" width="240" height="120" as="geometry" />
        </mxCell>
        <mxCell id="dNWCYUFnRBYijKzVIOxl-5" value="修改资料" style="rounded=1;whiteSpace=wrap;html=1;fontSize=45;fontFamily=黑体;fontStyle=1;strokeWidth=3;" vertex="1" parent="1">
          <mxGeometry x="1810" y="2680" width="240" height="120" as="geometry" />
        </mxCell>
        <mxCell id="dNWCYUFnRBYijKzVIOxl-6" value="营业中" style="rounded=1;whiteSpace=wrap;html=1;fontSize=45;fontFamily=黑体;fontStyle=1;strokeWidth=3;" vertex="1" parent="1">
          <mxGeometry x="1280" y="2680" width="240" height="120" as="geometry" />
        </mxCell>
        <mxCell id="dNWCYUFnRBYijKzVIOxl-7" value="暂停营业" style="rounded=1;whiteSpace=wrap;html=1;fontSize=45;fontFamily=黑体;fontStyle=1;strokeWidth=3;" vertex="1" parent="1">
          <mxGeometry x="1280" y="2960" width="240" height="120" as="geometry" />
        </mxCell>
        <mxCell id="dNWCYUFnRBYijKzVIOxl-49" style="edgeStyle=orthogonalEdgeStyle;rounded=0;orthogonalLoop=1;jettySize=auto;html=1;fontSize=25;fontFamily=黑体;strokeWidth=3;fontStyle=1" edge="1" parent="1" source="dNWCYUFnRBYijKzVIOxl-8" target="dNWCYUFnRBYijKzVIOxl-42">
          <mxGeometry relative="1" as="geometry" />
        </mxCell>
        <mxCell id="dNWCYUFnRBYijKzVIOxl-8" value="注销" style="rounded=1;whiteSpace=wrap;html=1;fontSize=45;fontFamily=黑体;fontStyle=1;strokeWidth=3;" vertex="1" parent="1">
          <mxGeometry x="1560" y="3280" width="240" height="120" as="geometry" />
        </mxCell>
        <mxCell id="dNWCYUFnRBYijKzVIOxl-9" value="被下架" style="rounded=1;whiteSpace=wrap;html=1;fontSize=45;fontFamily=黑体;fontStyle=1;strokeWidth=3;" vertex="1" parent="1">
          <mxGeometry x="1810" y="2960" width="240" height="120" as="geometry" />
        </mxCell>
        <mxCell id="dNWCYUFnRBYijKzVIOxl-10" value="" style="rhombus;whiteSpace=wrap;html=1;fontSize=25;fontFamily=黑体;strokeWidth=3;fontStyle=1" vertex="1" parent="1">
          <mxGeometry x="1640" y="2170" width="80" height="80" as="geometry" />
        </mxCell>
        <mxCell id="dNWCYUFnRBYijKzVIOxl-11" value="" style="endArrow=classic;html=1;rounded=0;fontSize=25;fontFamily=黑体;strokeWidth=3;fontStyle=1" edge="1" parent="1" source="dNWCYUFnRBYijKzVIOxl-1" target="dNWCYUFnRBYijKzVIOxl-2">
          <mxGeometry relative="1" as="geometry">
            <mxPoint x="1880" y="2170" as="sourcePoint" />
            <mxPoint x="1980" y="2170" as="targetPoint" />
          </mxGeometry>
        </mxCell>
        <mxCell id="dNWCYUFnRBYijKzVIOxl-12" value="商家提交入驻申请" style="edgeLabel;resizable=0;html=1;;align=center;verticalAlign=middle;fontSize=25;fontFamily=黑体;fontStyle=1" connectable="0" vertex="1" parent="dNWCYUFnRBYijKzVIOxl-11">
          <mxGeometry relative="1" as="geometry" />
        </mxCell>
        <mxCell id="dNWCYUFnRBYijKzVIOxl-16" value="" style="endArrow=classic;html=1;rounded=0;fontSize=25;fontFamily=黑体;strokeWidth=3;fontStyle=1" edge="1" parent="1" source="dNWCYUFnRBYijKzVIOxl-2" target="dNWCYUFnRBYijKzVIOxl-10">
          <mxGeometry relative="1" as="geometry">
            <mxPoint x="1630" y="2160" as="sourcePoint" />
            <mxPoint x="1630" y="2220" as="targetPoint" />
          </mxGeometry>
        </mxCell>
        <mxCell id="dNWCYUFnRBYijKzVIOxl-17" value="平台审核处理" style="edgeLabel;resizable=0;html=1;;align=center;verticalAlign=middle;fontSize=25;fontFamily=黑体;fontStyle=1" connectable="0" vertex="1" parent="dNWCYUFnRBYijKzVIOxl-16">
          <mxGeometry relative="1" as="geometry" />
        </mxCell>
        <mxCell id="dNWCYUFnRBYijKzVIOxl-19" value="" style="endArrow=classic;html=1;rounded=0;exitX=0.5;exitY=1;exitDx=0;exitDy=0;entryX=0.5;entryY=0;entryDx=0;entryDy=0;fontSize=25;fontFamily=黑体;strokeWidth=3;fontStyle=1" edge="1" parent="1" source="dNWCYUFnRBYijKzVIOxl-10" target="dNWCYUFnRBYijKzVIOxl-3">
          <mxGeometry relative="1" as="geometry">
            <mxPoint x="1590" y="2270" as="sourcePoint" />
            <mxPoint x="1590" y="2330" as="targetPoint" />
          </mxGeometry>
        </mxCell>
        <mxCell id="dNWCYUFnRBYijKzVIOxl-20" value="审核合格" style="edgeLabel;resizable=0;html=1;;align=center;verticalAlign=middle;fontSize=25;fontFamily=黑体;fontStyle=1" connectable="0" vertex="1" parent="dNWCYUFnRBYijKzVIOxl-19">
          <mxGeometry relative="1" as="geometry" />
        </mxCell>
        <mxCell id="dNWCYUFnRBYijKzVIOxl-21" value="" style="endArrow=classic;html=1;rounded=0;exitX=0.5;exitY=1;exitDx=0;exitDy=0;entryX=0.5;entryY=0;entryDx=0;entryDy=0;fontSize=25;fontFamily=黑体;strokeWidth=3;fontStyle=1" edge="1" parent="1" source="dNWCYUFnRBYijKzVIOxl-10" target="dNWCYUFnRBYijKzVIOxl-4">
          <mxGeometry relative="1" as="geometry">
            <mxPoint x="1760" y="2260" as="sourcePoint" />
            <mxPoint x="1760" y="2320" as="targetPoint" />
          </mxGeometry>
        </mxCell>
        <mxCell id="dNWCYUFnRBYijKzVIOxl-22" value="审核不合格" style="edgeLabel;resizable=0;html=1;;align=center;verticalAlign=middle;fontSize=25;fontFamily=黑体;fontStyle=1" connectable="0" vertex="1" parent="dNWCYUFnRBYijKzVIOxl-21">
          <mxGeometry relative="1" as="geometry" />
        </mxCell>
        <mxCell id="dNWCYUFnRBYijKzVIOxl-23" value="" style="endArrow=classic;html=1;rounded=0;fontSize=25;fontFamily=黑体;strokeWidth=3;fontStyle=1" edge="1" parent="1" source="dNWCYUFnRBYijKzVIOxl-3" target="dNWCYUFnRBYijKzVIOxl-6">
          <mxGeometry relative="1" as="geometry">
            <mxPoint x="1420" y="2550" as="sourcePoint" />
            <mxPoint x="1420" y="2610" as="targetPoint" />
          </mxGeometry>
        </mxCell>
        <mxCell id="dNWCYUFnRBYijKzVIOxl-24" value="商家完成开店设置" style="edgeLabel;resizable=0;html=1;;align=center;verticalAlign=middle;fontSize=25;fontFamily=黑体;fontStyle=1" connectable="0" vertex="1" parent="dNWCYUFnRBYijKzVIOxl-23">
          <mxGeometry relative="1" as="geometry" />
        </mxCell>
        <mxCell id="dNWCYUFnRBYijKzVIOxl-25" value="" style="endArrow=classic;html=1;rounded=0;fontSize=25;fontFamily=黑体;strokeWidth=3;fontStyle=1" edge="1" parent="1" source="dNWCYUFnRBYijKzVIOxl-6" target="dNWCYUFnRBYijKzVIOxl-7">
          <mxGeometry relative="1" as="geometry">
            <mxPoint x="1410" y="2810" as="sourcePoint" />
            <mxPoint x="1410" y="2870" as="targetPoint" />
          </mxGeometry>
        </mxCell>
        <mxCell id="dNWCYUFnRBYijKzVIOxl-26" value="商家主动暂停营业" style="edgeLabel;resizable=0;html=1;;align=center;verticalAlign=middle;fontSize=25;fontFamily=黑体;fontStyle=1" connectable="0" vertex="1" parent="dNWCYUFnRBYijKzVIOxl-25">
          <mxGeometry relative="1" as="geometry" />
        </mxCell>
        <mxCell id="dNWCYUFnRBYijKzVIOxl-27" value="" style="endArrow=classic;html=1;rounded=0;fontSize=25;fontFamily=黑体;strokeWidth=3;fontStyle=1" edge="1" parent="1" source="dNWCYUFnRBYijKzVIOxl-6" target="dNWCYUFnRBYijKzVIOxl-9">
          <mxGeometry relative="1" as="geometry">
            <mxPoint x="1550" y="2850" as="sourcePoint" />
            <mxPoint x="1550" y="2910" as="targetPoint" />
          </mxGeometry>
        </mxCell>
        <mxCell id="dNWCYUFnRBYijKzVIOxl-28" value="平台封禁店铺" style="edgeLabel;resizable=0;html=1;;align=center;verticalAlign=middle;fontSize=25;fontFamily=黑体;fontStyle=1" connectable="0" vertex="1" parent="dNWCYUFnRBYijKzVIOxl-27">
          <mxGeometry relative="1" as="geometry">
            <mxPoint x="-55" y="-30" as="offset" />
          </mxGeometry>
        </mxCell>
        <mxCell id="dNWCYUFnRBYijKzVIOxl-29" value="" style="rhombus;whiteSpace=wrap;html=1;fontSize=25;fontFamily=黑体;strokeWidth=3;fontStyle=1" vertex="1" parent="1">
          <mxGeometry x="1360" y="3240" width="80" height="80" as="geometry" />
        </mxCell>
        <mxCell id="dNWCYUFnRBYijKzVIOxl-30" value="" style="endArrow=classic;html=1;rounded=0;fontSize=25;fontFamily=黑体;strokeWidth=3;fontStyle=1" edge="1" parent="1" source="dNWCYUFnRBYijKzVIOxl-4" target="dNWCYUFnRBYijKzVIOxl-5">
          <mxGeometry relative="1" as="geometry">
            <mxPoint x="1910" y="2510" as="sourcePoint" />
            <mxPoint x="1910" y="2570" as="targetPoint" />
          </mxGeometry>
        </mxCell>
        <mxCell id="dNWCYUFnRBYijKzVIOxl-31" value="商家接受驳回或选择修改" style="edgeLabel;resizable=0;html=1;;align=center;verticalAlign=middle;fontSize=25;fontFamily=黑体;fontStyle=1" connectable="0" vertex="1" parent="dNWCYUFnRBYijKzVIOxl-30">
          <mxGeometry relative="1" as="geometry" />
        </mxCell>
        <mxCell id="dNWCYUFnRBYijKzVIOxl-33" value="" style="endArrow=classic;html=1;rounded=0;edgeStyle=orthogonalEdgeStyle;fontSize=25;fontFamily=黑体;strokeWidth=3;fontStyle=1" edge="1" parent="1" source="dNWCYUFnRBYijKzVIOxl-5" target="dNWCYUFnRBYijKzVIOxl-2">
          <mxGeometry relative="1" as="geometry">
            <mxPoint x="2180" y="2300" as="sourcePoint" />
            <mxPoint x="2320" y="2420" as="targetPoint" />
            <Array as="points">
              <mxPoint x="2120" y="2740" />
              <mxPoint x="2120" y="2050" />
            </Array>
          </mxGeometry>
        </mxCell>
        <mxCell id="dNWCYUFnRBYijKzVIOxl-34" value="商&lt;div&gt;家&lt;/div&gt;&lt;div&gt;重&lt;/div&gt;&lt;div&gt;新&lt;/div&gt;&lt;div&gt;提&lt;/div&gt;&lt;div&gt;交&lt;/div&gt;&lt;div&gt;申&lt;/div&gt;&lt;div&gt;请&lt;/div&gt;" style="edgeLabel;resizable=0;html=1;;align=center;verticalAlign=middle;fontSize=25;fontFamily=黑体;fontStyle=1" connectable="0" vertex="1" parent="dNWCYUFnRBYijKzVIOxl-33">
          <mxGeometry relative="1" as="geometry" />
        </mxCell>
        <mxCell id="dNWCYUFnRBYijKzVIOxl-36" value="" style="endArrow=classic;html=1;rounded=0;fontSize=25;fontFamily=黑体;strokeWidth=3;fontStyle=1" edge="1" parent="1" source="dNWCYUFnRBYijKzVIOxl-7" target="dNWCYUFnRBYijKzVIOxl-29">
          <mxGeometry relative="1" as="geometry">
            <mxPoint x="1340" y="3140" as="sourcePoint" />
            <mxPoint x="1440" y="3140" as="targetPoint" />
          </mxGeometry>
        </mxCell>
        <mxCell id="dNWCYUFnRBYijKzVIOxl-37" value="商家申请恢复营业" style="edgeLabel;resizable=0;html=1;;align=center;verticalAlign=middle;fontSize=25;fontFamily=黑体;fontStyle=1" connectable="0" vertex="1" parent="dNWCYUFnRBYijKzVIOxl-36">
          <mxGeometry relative="1" as="geometry">
            <mxPoint y="-10" as="offset" />
          </mxGeometry>
        </mxCell>
        <mxCell id="dNWCYUFnRBYijKzVIOxl-38" value="" style="endArrow=classic;html=1;rounded=0;edgeStyle=orthogonalEdgeStyle;fontSize=25;fontFamily=黑体;strokeWidth=3;fontStyle=1" edge="1" parent="1" source="dNWCYUFnRBYijKzVIOxl-29" target="dNWCYUFnRBYijKzVIOxl-6">
          <mxGeometry relative="1" as="geometry">
            <mxPoint x="1290" y="3200" as="sourcePoint" />
            <mxPoint x="1390" y="3200" as="targetPoint" />
            <Array as="points">
              <mxPoint x="1180" y="3280" />
              <mxPoint x="1180" y="2740" />
            </Array>
          </mxGeometry>
        </mxCell>
        <mxCell id="dNWCYUFnRBYijKzVIOxl-39" value="审&lt;div&gt;核&lt;/div&gt;&lt;div&gt;恢&lt;/div&gt;&lt;div&gt;复&lt;/div&gt;&lt;div&gt;通&lt;/div&gt;&lt;div&gt;过&lt;/div&gt;" style="edgeLabel;resizable=0;html=1;;align=center;verticalAlign=middle;fontSize=25;fontFamily=黑体;fontStyle=1" connectable="0" vertex="1" parent="dNWCYUFnRBYijKzVIOxl-38">
          <mxGeometry relative="1" as="geometry">
            <mxPoint y="-140" as="offset" />
          </mxGeometry>
        </mxCell>
        <mxCell id="dNWCYUFnRBYijKzVIOxl-40" value="" style="endArrow=classic;html=1;rounded=0;exitX=0.5;exitY=1;exitDx=0;exitDy=0;fontSize=25;fontFamily=黑体;strokeWidth=3;fontStyle=1" edge="1" parent="1" source="dNWCYUFnRBYijKzVIOxl-29" target="dNWCYUFnRBYijKzVIOxl-7">
          <mxGeometry relative="1" as="geometry">
            <mxPoint x="1370" y="3280" as="sourcePoint" />
            <mxPoint x="1510" y="3400" as="targetPoint" />
            <Array as="points">
              <mxPoint x="1400" y="3360" />
              <mxPoint x="1320" y="3360" />
              <mxPoint x="1240" y="3360" />
              <mxPoint x="1240" y="3020" />
            </Array>
          </mxGeometry>
        </mxCell>
        <mxCell id="dNWCYUFnRBYijKzVIOxl-41" value="审&lt;div&gt;核&lt;/div&gt;&lt;div&gt;恢&lt;/div&gt;&lt;div&gt;复&lt;/div&gt;&lt;div&gt;失&lt;/div&gt;&lt;div&gt;败&lt;/div&gt;" style="edgeLabel;resizable=0;html=1;;align=center;verticalAlign=middle;fontSize=25;fontFamily=黑体;fontStyle=1" connectable="0" vertex="1" parent="dNWCYUFnRBYijKzVIOxl-40">
          <mxGeometry relative="1" as="geometry">
            <mxPoint y="-110" as="offset" />
          </mxGeometry>
        </mxCell>
        <mxCell id="dNWCYUFnRBYijKzVIOxl-42" value="" style="ellipse;html=1;shape=endState;fillColor=strokeColor;fontSize=25;fontFamily=黑体;strokeWidth=2;perimeterSpacing=0;fontStyle=1" vertex="1" parent="1">
          <mxGeometry x="1640" y="3460" width="80" height="80" as="geometry" />
        </mxCell>
        <mxCell id="dNWCYUFnRBYijKzVIOxl-43" value="" style="endArrow=classic;html=1;rounded=0;fontSize=25;fontFamily=黑体;strokeWidth=3;fontStyle=1" edge="1" parent="1" source="dNWCYUFnRBYijKzVIOxl-7" target="dNWCYUFnRBYijKzVIOxl-8">
          <mxGeometry relative="1" as="geometry">
            <mxPoint x="1680" y="3140" as="sourcePoint" />
            <mxPoint x="1780" y="3140" as="targetPoint" />
          </mxGeometry>
        </mxCell>
        <mxCell id="dNWCYUFnRBYijKzVIOxl-44" value="商家申请注销" style="edgeLabel;resizable=0;html=1;;align=center;verticalAlign=middle;fontSize=25;fontFamily=黑体;fontStyle=1" connectable="0" vertex="1" parent="dNWCYUFnRBYijKzVIOxl-43">
          <mxGeometry relative="1" as="geometry">
            <mxPoint x="20" y="20" as="offset" />
          </mxGeometry>
        </mxCell>
        <mxCell id="dNWCYUFnRBYijKzVIOxl-45" value="" style="endArrow=classic;html=1;rounded=0;fontSize=25;fontFamily=黑体;strokeWidth=3;fontStyle=1" edge="1" parent="1" source="dNWCYUFnRBYijKzVIOxl-9" target="dNWCYUFnRBYijKzVIOxl-8">
          <mxGeometry relative="1" as="geometry">
            <mxPoint x="1620" y="3210" as="sourcePoint" />
            <mxPoint x="1820" y="3410" as="targetPoint" />
          </mxGeometry>
        </mxCell>
        <mxCell id="dNWCYUFnRBYijKzVIOxl-46" value="商家申请注销" style="edgeLabel;resizable=0;html=1;;align=center;verticalAlign=middle;fontSize=25;fontFamily=黑体;fontStyle=1" connectable="0" vertex="1" parent="dNWCYUFnRBYijKzVIOxl-45">
          <mxGeometry relative="1" as="geometry" />
        </mxCell>
        <mxCell id="dNWCYUFnRBYijKzVIOxl-47" value="" style="endArrow=classic;html=1;rounded=0;entryX=0.5;entryY=0;entryDx=0;entryDy=0;fontSize=25;fontFamily=黑体;strokeWidth=3;fontStyle=1" edge="1" parent="1" source="dNWCYUFnRBYijKzVIOxl-6" target="dNWCYUFnRBYijKzVIOxl-8">
          <mxGeometry relative="1" as="geometry">
            <mxPoint x="1710" y="3040" as="sourcePoint" />
            <mxPoint x="1910" y="3240" as="targetPoint" />
            <Array as="points">
              <mxPoint x="1680" y="2740" />
            </Array>
          </mxGeometry>
        </mxCell>
        <mxCell id="dNWCYUFnRBYijKzVIOxl-48" value="商&lt;div&gt;家&lt;/div&gt;&lt;div&gt;主&lt;/div&gt;&lt;div&gt;动&lt;/div&gt;&lt;div&gt;申&lt;/div&gt;&lt;div&gt;请&lt;/div&gt;&lt;div&gt;注&lt;/div&gt;&lt;div&gt;销&lt;/div&gt;" style="edgeLabel;resizable=0;html=1;;align=center;verticalAlign=middle;fontSize=25;fontFamily=黑体;rotation=0;fontStyle=1" connectable="0" vertex="1" parent="dNWCYUFnRBYijKzVIOxl-47">
          <mxGeometry relative="1" as="geometry">
            <mxPoint y="130" as="offset" />
          </mxGeometry>
        </mxCell>
        <mxCell id="dNWCYUFnRBYijKzVIOxl-78" style="edgeStyle=orthogonalEdgeStyle;rounded=0;orthogonalLoop=1;jettySize=auto;html=1;strokeWidth=2;" edge="1" parent="1" source="dNWCYUFnRBYijKzVIOxl-52" target="dNWCYUFnRBYijKzVIOxl-56">
          <mxGeometry relative="1" as="geometry" />
        </mxCell>
        <mxCell id="dNWCYUFnRBYijKzVIOxl-80" value="录入商品" style="edgeLabel;html=1;align=center;verticalAlign=middle;resizable=0;points=[];fontSize=25;fontFamily=黑体;fontStyle=1" vertex="1" connectable="0" parent="dNWCYUFnRBYijKzVIOxl-78">
          <mxGeometry x="-0.2014" relative="1" as="geometry">
            <mxPoint x="60" y="5" as="offset" />
          </mxGeometry>
        </mxCell>
        <mxCell id="dNWCYUFnRBYijKzVIOxl-52" value="" style="ellipse;fillColor=strokeColor;html=1;" vertex="1" parent="1">
          <mxGeometry x="2000" y="4480" width="80" height="75" as="geometry" />
        </mxCell>
        <mxCell id="dNWCYUFnRBYijKzVIOxl-54" value="" style="ellipse;whiteSpace=wrap;html=1;aspect=fixed;strokeWidth=3;" vertex="1" parent="1">
          <mxGeometry x="2000" y="5640" width="80" height="80" as="geometry" />
        </mxCell>
        <mxCell id="dNWCYUFnRBYijKzVIOxl-53" value="" style="ellipse;fillColor=strokeColor;html=1;" vertex="1" parent="1">
          <mxGeometry x="2012.5" y="5652.5" width="55" height="55" as="geometry" />
        </mxCell>
        <mxCell id="dNWCYUFnRBYijKzVIOxl-56" value="待审核" style="rounded=1;whiteSpace=wrap;html=1;fontSize=45;fontFamily=黑体;fontStyle=1;strokeWidth=3;" vertex="1" parent="1">
          <mxGeometry x="1920" y="4640" width="240" height="120" as="geometry" />
        </mxCell>
        <mxCell id="dNWCYUFnRBYijKzVIOxl-57" value="驳回" style="rounded=1;whiteSpace=wrap;html=1;fontSize=45;fontFamily=黑体;fontStyle=1;strokeWidth=3;" vertex="1" parent="1">
          <mxGeometry x="2120" y="4960" width="240" height="120" as="geometry" />
        </mxCell>
        <mxCell id="dNWCYUFnRBYijKzVIOxl-58" value="上架" style="rounded=1;whiteSpace=wrap;html=1;fontSize=45;fontFamily=黑体;fontStyle=1;strokeWidth=3;" vertex="1" parent="1">
          <mxGeometry x="1720" y="4960" width="240" height="120" as="geometry" />
        </mxCell>
        <mxCell id="dNWCYUFnRBYijKzVIOxl-79" style="edgeStyle=orthogonalEdgeStyle;rounded=0;orthogonalLoop=1;jettySize=auto;html=1;strokeWidth=3;" edge="1" parent="1" source="dNWCYUFnRBYijKzVIOxl-59" target="dNWCYUFnRBYijKzVIOxl-58">
          <mxGeometry relative="1" as="geometry">
            <Array as="points">
              <mxPoint x="2080" y="5020" />
            </Array>
          </mxGeometry>
        </mxCell>
        <mxCell id="dNWCYUFnRBYijKzVIOxl-59" value="售罄" style="rounded=1;whiteSpace=wrap;html=1;fontSize=45;fontFamily=黑体;fontStyle=1;strokeWidth=3;" vertex="1" parent="1">
          <mxGeometry x="1960" y="5200" width="240" height="120" as="geometry" />
        </mxCell>
        <mxCell id="dNWCYUFnRBYijKzVIOxl-60" value="下架" style="rounded=1;whiteSpace=wrap;html=1;fontSize=45;fontFamily=黑体;fontStyle=1;strokeWidth=3;" vertex="1" parent="1">
          <mxGeometry x="1520" y="5200" width="240" height="120" as="geometry" />
        </mxCell>
        <mxCell id="dNWCYUFnRBYijKzVIOxl-87" style="edgeStyle=orthogonalEdgeStyle;rounded=0;orthogonalLoop=1;jettySize=auto;html=1;strokeWidth=3;" edge="1" parent="1" source="dNWCYUFnRBYijKzVIOxl-61">
          <mxGeometry relative="1" as="geometry">
            <mxPoint x="2040" y="5640" as="targetPoint" />
          </mxGeometry>
        </mxCell>
        <mxCell id="dNWCYUFnRBYijKzVIOxl-61" value="删除" style="rounded=1;whiteSpace=wrap;html=1;fontSize=45;fontFamily=黑体;fontStyle=1;strokeWidth=3;" vertex="1" parent="1">
          <mxGeometry x="1920" y="5470" width="240" height="120" as="geometry" />
        </mxCell>
        <mxCell id="dNWCYUFnRBYijKzVIOxl-62" value="" style="rhombus;whiteSpace=wrap;html=1;strokeWidth=3;" vertex="1" parent="1">
          <mxGeometry x="2000" y="4820" width="80" height="80" as="geometry" />
        </mxCell>
        <mxCell id="dNWCYUFnRBYijKzVIOxl-63" value="" style="endArrow=classic;html=1;rounded=0;strokeWidth=3;" edge="1" parent="1" source="dNWCYUFnRBYijKzVIOxl-56" target="dNWCYUFnRBYijKzVIOxl-62">
          <mxGeometry relative="1" as="geometry">
            <mxPoint x="1670" y="4910" as="sourcePoint" />
            <mxPoint x="1770" y="4910" as="targetPoint" />
          </mxGeometry>
        </mxCell>
        <mxCell id="dNWCYUFnRBYijKzVIOxl-66" value="" style="endArrow=classic;html=1;rounded=0;strokeWidth=3;exitX=0.5;exitY=1;exitDx=0;exitDy=0;entryX=0.5;entryY=0;entryDx=0;entryDy=0;" edge="1" parent="1" source="dNWCYUFnRBYijKzVIOxl-62" target="dNWCYUFnRBYijKzVIOxl-57">
          <mxGeometry relative="1" as="geometry">
            <mxPoint x="2090" y="4840" as="sourcePoint" />
            <mxPoint x="2090" y="4900" as="targetPoint" />
          </mxGeometry>
        </mxCell>
        <mxCell id="dNWCYUFnRBYijKzVIOxl-68" value="" style="endArrow=classic;html=1;rounded=0;strokeWidth=3;exitX=0.5;exitY=1;exitDx=0;exitDy=0;entryX=0.5;entryY=0;entryDx=0;entryDy=0;" edge="1" parent="1" source="dNWCYUFnRBYijKzVIOxl-62" target="dNWCYUFnRBYijKzVIOxl-58">
          <mxGeometry relative="1" as="geometry">
            <mxPoint x="2050" y="4940" as="sourcePoint" />
            <mxPoint x="2050" y="5000" as="targetPoint" />
          </mxGeometry>
        </mxCell>
        <mxCell id="dNWCYUFnRBYijKzVIOxl-70" value="" style="endArrow=classic;html=1;rounded=0;strokeWidth=3;" edge="1" parent="1" source="dNWCYUFnRBYijKzVIOxl-58" target="dNWCYUFnRBYijKzVIOxl-60">
          <mxGeometry relative="1" as="geometry">
            <mxPoint x="1860" y="5180" as="sourcePoint" />
            <mxPoint x="1860" y="5240" as="targetPoint" />
          </mxGeometry>
        </mxCell>
        <mxCell id="dNWCYUFnRBYijKzVIOxl-72" value="" style="endArrow=classic;html=1;rounded=0;strokeWidth=3;" edge="1" parent="1" source="dNWCYUFnRBYijKzVIOxl-58" target="dNWCYUFnRBYijKzVIOxl-59">
          <mxGeometry relative="1" as="geometry">
            <mxPoint x="1870" y="5140" as="sourcePoint" />
            <mxPoint x="1870" y="5200" as="targetPoint" />
          </mxGeometry>
        </mxCell>
        <mxCell id="dNWCYUFnRBYijKzVIOxl-74" value="" style="endArrow=classic;html=1;rounded=0;strokeWidth=3;" edge="1" parent="1" source="dNWCYUFnRBYijKzVIOxl-57" target="dNWCYUFnRBYijKzVIOxl-56">
          <mxGeometry relative="1" as="geometry">
            <mxPoint x="2510" y="5100" as="sourcePoint" />
            <mxPoint x="2510" y="5160" as="targetPoint" />
            <Array as="points">
              <mxPoint x="2400" y="5020" />
              <mxPoint x="2400" y="4860" />
              <mxPoint x="2400" y="4700" />
            </Array>
          </mxGeometry>
        </mxCell>
        <mxCell id="dNWCYUFnRBYijKzVIOxl-76" value="" style="endArrow=classic;html=1;rounded=0;strokeWidth=3;" edge="1" parent="1" source="dNWCYUFnRBYijKzVIOxl-60" target="dNWCYUFnRBYijKzVIOxl-61">
          <mxGeometry relative="1" as="geometry">
            <mxPoint x="1630" y="5380" as="sourcePoint" />
            <mxPoint x="1630" y="5440" as="targetPoint" />
          </mxGeometry>
        </mxCell>
        <mxCell id="dNWCYUFnRBYijKzVIOxl-81" value="审核不通过" style="edgeLabel;html=1;align=center;verticalAlign=middle;resizable=0;points=[];fontSize=25;fontFamily=黑体;fontStyle=1;labelBackgroundColor=none;" vertex="1" connectable="0" parent="1">
          <mxGeometry x="2180" y="4910" as="geometry">
            <mxPoint x="4" y="2" as="offset" />
          </mxGeometry>
        </mxCell>
        <mxCell id="dNWCYUFnRBYijKzVIOxl-82" value="审核通过" style="edgeLabel;html=1;align=center;verticalAlign=middle;resizable=0;points=[];fontSize=25;fontFamily=黑体;fontStyle=1;labelBackgroundColor=none;" vertex="1" connectable="0" parent="1">
          <mxGeometry x="1900" y="4910" as="geometry" />
        </mxCell>
        <mxCell id="dNWCYUFnRBYijKzVIOxl-83" value="修&lt;div&gt;改&lt;/div&gt;&lt;div&gt;后&lt;/div&gt;&lt;div&gt;重&lt;/div&gt;&lt;div&gt;新&lt;/div&gt;&lt;div&gt;提&lt;/div&gt;&lt;div&gt;交&lt;/div&gt;" style="edgeLabel;html=1;align=center;verticalAlign=middle;resizable=0;points=[];fontSize=25;fontFamily=黑体;fontStyle=1;labelBackgroundColor=none;" vertex="1" connectable="0" parent="1">
          <mxGeometry x="2380" y="4830" as="geometry" />
        </mxCell>
        <mxCell id="dNWCYUFnRBYijKzVIOxl-84" value="补货" style="edgeLabel;html=1;align=center;verticalAlign=middle;resizable=0;points=[];fontSize=25;fontFamily=黑体;fontStyle=1;labelBackgroundColor=none;" vertex="1" connectable="0" parent="1">
          <mxGeometry x="1880" y="5150" as="geometry">
            <mxPoint x="162" y="-49" as="offset" />
          </mxGeometry>
        </mxCell>
        <mxCell id="dNWCYUFnRBYijKzVIOxl-85" value="手动下架" style="edgeLabel;html=1;align=center;verticalAlign=middle;resizable=0;points=[];fontSize=25;fontFamily=黑体;fontStyle=1;labelBackgroundColor=none;rotation=0;" vertex="1" connectable="0" parent="1">
          <mxGeometry x="1670" y="5140" as="geometry">
            <mxPoint x="-6" y="-4" as="offset" />
          </mxGeometry>
        </mxCell>
        <mxCell id="dNWCYUFnRBYijKzVIOxl-86" value="删除菜品" style="edgeLabel;html=1;align=center;verticalAlign=middle;resizable=0;points=[];fontSize=25;fontFamily=黑体;fontStyle=1;labelBackgroundColor=none;" vertex="1" connectable="0" parent="1">
          <mxGeometry x="1890" y="5370" as="geometry" />
        </mxCell>
        <mxCell id="dNWCYUFnRBYijKzVIOxl-88" value="库存为零" style="edgeLabel;html=1;align=center;verticalAlign=middle;resizable=0;points=[];fontSize=25;fontFamily=黑体;fontStyle=1;labelBackgroundColor=none;" vertex="1" connectable="0" parent="1">
          <mxGeometry x="1920" y="5160" as="geometry">
            <mxPoint x="-8" y="-8" as="offset" />
          </mxGeometry>
        </mxCell>
      </root>
    </mxGraphModel>
  </diagram>
</mxfile>
